<svg width="24" height="25" viewBox="0 0 24 25" fill="none" xmlns="http://www.w3.org/2000/svg">
<rect y="0.5" width="24" height="24" rx="12" fill="#D58080"/>
<path fill-rule="evenodd" clip-rule="evenodd" d="M12 24.5C5.3724 24.5 0 19.1276 0 12.5C0 5.8724 5.3724 0.5 12 0.5C18.6276 0.5 24 5.8724 24 12.5C24 19.1276 18.6276 24.5 12 24.5ZM12 23.06C14.8007 23.06 17.4867 21.9474 19.467 19.967C21.4474 17.9867 22.56 15.3007 22.56 12.5C22.56 9.69931 21.4474 7.01334 19.467 5.03295C17.4867 3.05257 14.8007 1.94 12 1.94C9.19931 1.94 6.51334 3.05257 4.53295 5.03295C2.55257 7.01334 1.44 9.69931 1.44 12.5C1.44 15.3007 2.55257 17.9867 4.53295 19.967C6.51334 21.9474 9.19931 23.06 12 23.06ZM11.208 5.8172H12.792L12.6852 14.2892H11.316L11.2104 5.8172H11.208ZM12 18.5876C11.868 18.5892 11.737 18.5644 11.6147 18.5146C11.4924 18.4648 11.3813 18.3911 11.2879 18.2977C11.1945 18.2043 11.1208 18.0932 11.071 17.9709C11.0212 17.8487 10.9964 17.7176 10.998 17.5856C10.9956 17.4533 11.0198 17.322 11.0693 17.1993C11.1188 17.0766 11.1925 16.9652 11.286 16.8716C11.3796 16.7781 11.491 16.7044 11.6137 16.6549C11.7364 16.6054 11.8677 16.5812 12 16.5836C12.5712 16.5836 13.002 17.0156 13.002 17.5856C13.0044 17.7179 12.9802 17.8492 12.9307 17.9719C12.8812 18.0946 12.8075 18.206 12.714 18.2996C12.6204 18.3931 12.509 18.4668 12.3863 18.5163C12.2636 18.5658 12.1323 18.59 12 18.5876Z" fill="black"/>
</svg>
