<svg width="24" height="24" viewBox="0 0 24 24" fill="none" xmlns="http://www.w3.org/2000/svg">
<path fill-rule="evenodd" clip-rule="evenodd" d="M4.99993 9C4.99993 7.14348 5.73743 5.36301 7.05018 4.05025C8.36294 2.7375 10.1434 2 11.9999 2C13.8564 2 15.6369 2.7375 16.9497 4.05025C18.2624 5.36301 18.9999 7.14348 18.9999 9V12.764L20.8219 16.408C20.9058 16.5757 20.9454 16.7621 20.937 16.9494C20.9286 17.1368 20.8724 17.3188 20.7738 17.4783C20.6752 17.6379 20.5375 17.7695 20.3737 17.8608C20.2099 17.9521 20.0255 18 19.8379 18H15.8739C15.6515 18.8582 15.1504 19.6183 14.4492 20.1609C13.748 20.7035 12.8865 20.9979 11.9999 20.9979C11.1133 20.9979 10.2518 20.7035 9.55067 20.1609C8.8495 19.6183 8.34837 18.8582 8.12593 18H4.16193C3.97441 18 3.78999 17.9521 3.6262 17.8608C3.4624 17.7695 3.32467 17.6379 3.22608 17.4783C3.12748 17.3188 3.07131 17.1368 3.06288 16.9494C3.05445 16.7621 3.09406 16.5757 3.17793 16.408L4.99993 12.764V9ZM10.2679 18C10.4435 18.304 10.6959 18.5565 11 18.732C11.304 18.9075 11.6489 18.9999 11.9999 18.9999C12.351 18.9999 12.6959 18.9075 12.9999 18.732C13.3039 18.5565 13.5564 18.304 13.7319 18H10.2679ZM11.9999 4C10.6738 4 9.40208 4.52678 8.4644 5.46447C7.52671 6.40215 6.99993 7.67392 6.99993 9V12.764C6.99991 13.0743 6.92767 13.3804 6.78893 13.658L5.61893 16H18.3819L17.2119 13.658C17.0728 13.3805 17.0003 13.0744 16.9999 12.764V9C16.9999 7.67392 16.4731 6.40215 15.5355 5.46447C14.5978 4.52678 13.326 4 11.9999 4Z" fill="black"/>
</svg>
