<svg width="24" height="24" viewBox="0 0 24 24" fill="none" xmlns="http://www.w3.org/2000/svg">
<path d="M21.07 16.17C20.73 15.24 18.67 15.11 17.71 12.98C17.65 12.82 17.66 12.71 17.82 12.61C18.56 12.12 19.08 11.85 19.38 11.28C19.6 10.87 19.63 10.39 19.46 9.95C19.23 9.34 18.65 8.95 17.94 8.95C17.69 8.95 17.49 9 17.39 9.02C17.4 8.6 17.39 8.16 17.35 7.72C17.22 6.19 16.68 5.38 16.12 4.74C15.79 4.37 14.48 3 12 3C9.52001 3 8.21001 4.37 7.88001 4.74C7.32001 5.38 6.78001 6.19 6.65001 7.72C6.62001 8.16 6.61001 8.6 6.61001 9.02C6.50001 8.99 6.31001 8.95 6.06001 8.95C5.36001 8.95 4.77001 9.33 4.54001 9.95C4.37001 10.38 4.40001 10.87 4.62001 11.28C4.93001 11.86 5.44001 12.12 6.18001 12.61C6.34001 12.72 6.35001 12.82 6.29001 12.98C5.32001 15.11 3.27001 15.24 2.93001 16.17C2.78001 16.57 2.88001 17.02 3.25001 17.4C3.82001 17.99 4.88001 18.17 5.09001 18.31C5.26001 18.45 5.24001 18.87 5.72001 19.21C6.10001 19.47 6.52001 19.49 6.97001 19.5C8.28001 19.55 8.57001 19.77 9.07001 20.08C9.70001 20.47 10.56 21 12 21C13.44 21 14.3 20.47 14.93 20.08C15.43 19.77 15.72 19.55 17.03 19.5C17.48 19.48 17.9 19.47 18.28 19.21C18.77 18.87 18.75 18.45 18.91 18.31C19.12 18.17 20.18 17.99 20.75 17.4C21.12 17.02 21.22 16.57 21.07 16.17ZM20.04 16.7C19.67 17.09 18.78 17.2 18.31 17.52C17.83 17.94 17.91 18.26 17.72 18.39C17.59 18.48 17.36 18.49 17 18.51C15.6 18.56 15.09 18.82 14.48 19.2C13.05 20.08 12.25 20 12 20C11.75 20 10.95 20.08 9.53001 19.19C8.92001 18.81 8.42001 18.56 7.01001 18.5C6.65001 18.49 6.42001 18.47 6.29001 18.38C6.10001 18.25 6.17001 17.93 5.70001 17.51C5.22001 17.19 4.34001 17.08 3.97001 16.69C3.91001 16.63 3.86001 16.55 3.85001 16.54C3.92001 16.44 4.26001 16.24 4.51001 16.1C5.29001 15.64 6.49001 14.96 7.22001 13.35C7.48001 12.65 7.25001 12.09 6.74001 11.76C5.59001 11.03 5.61001 11 5.50001 10.8C5.4605 10.7233 5.43743 10.6393 5.43227 10.5532C5.4271 10.4671 5.43995 10.3808 5.47001 10.3C5.59001 9.98 5.92001 9.95 6.05001 9.95C6.24001 9.95 6.23001 9.96 7.62001 10.32C7.60001 8.92 7.58001 8.47 7.64001 7.81C7.75001 6.5 8.21001 5.88 8.62001 5.41C8.90001 5.11 9.99001 3.98 12 4C14.01 3.98 15.1 5.11 15.37 5.41C15.78 5.88 16.24 6.5 16.35 7.81C16.41 8.47 16.39 8.92 16.37 10.32C17.77 9.96 17.75 9.95 17.94 9.95C18.08 9.95 18.4 9.98 18.52 10.3C18.59 10.47 18.58 10.65 18.49 10.8C18.38 11 18.4 11.02 17.26 11.77C16.75 12.1 16.52 12.66 16.78 13.36C17.51 14.97 18.71 15.65 19.49 16.11C19.74 16.26 20.08 16.45 20.15 16.55C20.15 16.56 20.09 16.64 20.04 16.7Z" fill="black"/>
</svg>
