<svg width="24" height="24" viewBox="0 0 24 24" fill="none" xmlns="http://www.w3.org/2000/svg">
<path d="M15.073 2H8.938C3.332 2 2 3.333 2 8.927V15.063C2 20.667 3.323 22 8.927 22H15.063C20.667 22 22 20.677 22 15.073V8.938C22 3.332 20.677 2 15.073 2ZM18.146 16.27H16.687C16.135 16.27 15.969 15.823 14.979 14.833C14.115 14 13.75 13.896 13.531 13.896C13.229 13.896 13.146 13.979 13.146 14.396V15.708C13.146 16.063 13.031 16.271 12.104 16.271C11.2045 16.2099 10.3323 15.9363 9.5591 15.4727C8.78588 15.0091 8.13366 14.3686 7.656 13.604C6.52235 12.1945 5.73403 10.5394 5.354 8.771C5.354 8.552 5.437 8.354 5.854 8.354H7.313C7.688 8.354 7.823 8.521 7.969 8.906C8.677 10.99 9.885 12.802 10.375 12.802C10.563 12.802 10.645 12.719 10.645 12.25V10.104C10.583 9.125 10.063 9.042 10.063 8.688C10.0697 8.59463 10.1125 8.50753 10.1823 8.44518C10.2521 8.38283 10.3435 8.35012 10.437 8.354H12.729C13.042 8.354 13.146 8.51 13.146 8.885V11.781C13.146 12.094 13.281 12.198 13.375 12.198C13.563 12.198 13.708 12.094 14.052 11.75C14.7909 10.8489 15.3945 9.84507 15.844 8.77C15.8902 8.64105 15.9772 8.53068 16.0918 8.45562C16.2064 8.38055 16.3423 8.34488 16.479 8.354H17.938C18.375 8.354 18.468 8.573 18.375 8.885C17.8445 10.0734 17.1881 11.2016 16.417 12.25C16.26 12.49 16.197 12.615 16.417 12.896C16.562 13.115 17.073 13.542 17.417 13.948C17.9167 14.4468 18.3318 15.0237 18.646 15.656C18.771 16.062 18.562 16.27 18.146 16.27Z" fill="black"/>
</svg>
