<svg width="24" height="25" viewBox="0 0 24 25" fill="none" xmlns="http://www.w3.org/2000/svg">
<rect y="0.5" width="24" height="24" rx="12" fill="#AAFF96"/>
<path fill-rule="evenodd" clip-rule="evenodd" d="M12 23.3C17.9646 23.3 22.8 18.4646 22.8 12.5C22.8 6.5354 17.9646 1.7 12 1.7C6.0354 1.7 1.2 6.5354 1.2 12.5C1.2 18.4646 6.0354 23.3 12 23.3ZM12 24.5C18.6276 24.5 24 19.1276 24 12.5C24 5.8724 18.6276 0.5 12 0.5C5.3724 0.5 0 5.8724 0 12.5C0 19.1276 5.3724 24.5 12 24.5Z" fill="black"/>
<path fill-rule="evenodd" clip-rule="evenodd" d="M18.4019 7.85537C18.52 7.96201 18.5908 8.11116 18.5989 8.27003C18.607 8.4289 18.5517 8.58448 18.4451 8.70257L10.4315 17.5592L5.58594 12.9338C5.47714 12.8226 5.41578 12.6735 5.41481 12.5179C5.41384 12.3623 5.47333 12.2125 5.58074 12.0999C5.68815 11.9874 5.83508 11.9209 5.99052 11.9146C6.14597 11.9083 6.29779 11.9627 6.41394 12.0662L10.3679 15.8402L17.5553 7.89797C17.6082 7.83952 17.6721 7.79207 17.7434 7.75832C17.8146 7.72457 17.8918 7.7052 17.9705 7.7013C18.0493 7.6974 18.128 7.70905 18.2022 7.73559C18.2765 7.76213 18.3447 7.80304 18.4031 7.85597" fill="black"/>
</svg>
